# xmcd
#
# Track frame offsets:
#	150
#	6328
#	19714
#	36870
#	55585
#	67042
#	85909
#	100885
#	114230
#	129694
#	150591
#	164492
#	188507
#	202544
#	225213
#	239893
#	253056
#	268935
#	285454
#	300921
#	312737
#
# Disc length: 4191 seconds
#
# Revision: 1
# Processed by: cddbd v1.4PL0 Copyright (c) Steve Scherf et al.
# Submitted via: audiograbber 1.81.03
#
DISCID=15105d15
DTITLE=Delaney Brothers Bluegrass - Full Spectrum
DYEAR=2000
DGENRE=Bluegrass
TTITLE0=Shuckin' The Corn
TTITLE1=I Have Found The Way
TTITLE2=Lonely Moon
TTITLE3=Katrina's Lullaby
TTITLE4=The Lord's Last Supper
TTITLE5=What Will You Do With This Man
TTITLE6=Jerusalem Ridge
TTITLE7=Wicked Path Of Sin
TTITLE8=Preaching By The Roadside
TTITLE9=Monroe's Lament
TTITLE10=Better Days To Come
TTITLE11=How Great Thou Art
TTITLE12=Heart Of A Little Mountain Girl
TTITLE13=Ashokan Farewell
TTITLE14=He Rode All The Way To Texas
TTITLE15=The Only Girl
TTITLE16=A Time To Learn
TTITLE17=Kentucky Mandolin
TTITLE18=The Hills That I Call Home
TTITLE19=Sawing On The Strings
TTITLE20=Bill Monroe Theme
EXTD=
EXTT0=
EXTT1=
EXTT2=
EXTT3=
EXTT4=
EXTT5=
EXTT6=
EXTT7=
EXTT8=
EXTT9=
EXTT10=
EXTT11=
EXTT12=
EXTT13=
EXTT14=
EXTT15=
EXTT16=
EXTT17=
EXTT18=
EXTT19=
EXTT20=
PLAYORDER=
